<svg width="512" height="204" viewBox="0 0 512 204" fill="none" xmlns="http://www.w3.org/2000/svg">
<path fill-rule="evenodd" clip-rule="evenodd" d="M153.471 52.6146C157.416 54.2492 161 56.645 164.019 59.6652C167.039 62.6839 169.435 66.2682 171.07 70.2131C172.704 74.1581 173.545 78.3864 173.545 82.6566C173.545 86.9268 172.704 91.1551 171.07 95.1C169.435 99.045 167.039 102.629 164.019 105.648L118.92 150.746C114.972 154.695 108.57 154.695 104.622 150.746L59.5233 105.648C53.4257 99.5503 50 91.28 50 82.6566C50 74.0331 53.4257 65.7629 59.5233 59.6652C65.621 53.5675 73.8913 50.1418 82.5147 50.1418C91.1382 50.1418 99.4084 53.5675 105.506 59.6652L111.771 65.9302L118.036 59.6652C121.055 56.645 124.639 54.2492 128.584 52.6146C132.529 50.98 136.757 50.1387 141.028 50.1387C145.298 50.1387 149.526 50.98 153.471 52.6146ZM94.7909 85.4928C90.1799 92.4081 86.7588 99.3655 86.7588 106.911C86.7588 118.027 93.1235 128.478 102.249 132.533L105.369 128.093C109.136 123.788 115.245 123.786 119.014 128.093L121.563 131.004C130.688 126.949 136.288 117.443 136.288 106.909C136.288 93.8257 125.544 85.2904 125.544 85.2904C124.465 84.2679 123.567 84.6769 123.563 86.1485C123.563 86.1485 124.24 98.8791 117.547 98.8791C114.138 98.8791 114.077 95.6316 113.989 90.9107C113.877 84.9155 113.721 76.5441 106.606 69.4298C103.803 67.0268 102.677 66.0617 102.159 66.3192C100.947 66.9226 103.072 74.2354 94.7909 85.4928ZM124.337 74.724C121.925 71.0031 117.247 68.862 115.183 69.2197C114.29 69.3738 114.556 69.6676 115.244 70.4293C116.148 71.4299 117.782 73.2378 118.478 76.597C119.706 82.5103 127.705 80.0994 124.337 74.724Z" fill="white"/>
<path d="M259.797 86.8867C258.066 83.7135 255.686 81.2976 252.658 79.6389C249.629 77.9803 246.095 77.1509 242.056 77.1509C237.585 77.1509 233.619 78.1605 230.157 80.1798C226.695 82.1991 223.991 85.0838 222.044 88.8338C220.097 92.5839 219.123 96.9109 219.123 101.815C219.123 106.863 220.097 111.262 222.044 115.012C224.063 118.762 226.84 121.647 230.373 123.666C233.907 125.686 238.018 126.695 242.705 126.695C248.475 126.695 253.198 125.181 256.876 122.152C260.554 119.051 262.97 114.76 264.124 109.279H238.162V97.7042H279.052V110.902C278.043 116.166 275.879 121.034 272.562 125.505C269.244 129.977 264.953 133.582 259.689 136.323C254.496 138.991 248.655 140.325 242.164 140.325C234.881 140.325 228.282 138.703 222.368 135.457C216.527 132.14 211.911 127.561 208.522 121.719C205.205 115.878 203.546 109.243 203.546 101.815C203.546 94.3868 205.205 87.7521 208.522 81.9106C211.911 75.997 216.527 71.4176 222.368 68.1724C228.282 64.855 234.845 63.1963 242.056 63.1963C250.566 63.1963 257.958 65.2877 264.232 69.4705C270.506 73.5811 274.833 79.3865 277.213 86.8867H259.797Z" fill="white"/>
<path d="M340.558 108.414C340.558 110.577 340.414 112.524 340.126 114.255H296.315C296.675 118.582 298.19 121.972 300.858 124.424C303.526 126.875 306.808 128.101 310.702 128.101C316.327 128.101 320.33 125.686 322.709 120.854H339.044C337.313 126.623 333.996 131.383 329.092 135.133C324.188 138.811 318.166 140.65 311.027 140.65C305.257 140.65 300.065 139.388 295.449 136.864C290.906 134.267 287.336 130.626 284.74 125.938C282.216 121.25 280.954 115.842 280.954 109.712C280.954 103.51 282.216 98.0648 284.74 93.3772C287.264 88.6896 290.798 85.0838 295.341 82.5597C299.884 80.0356 305.113 78.7735 311.027 78.7735C316.724 78.7735 321.808 79.9995 326.279 82.4515C330.823 84.9035 334.32 88.4011 336.772 92.9445C339.296 97.4158 340.558 102.572 340.558 108.414ZM324.873 104.087C324.801 100.192 323.395 97.0912 320.654 94.7835C317.914 92.4036 314.56 91.2137 310.594 91.2137C306.844 91.2137 303.671 92.3676 301.074 94.6753C298.55 96.9109 297 100.048 296.423 104.087H324.873Z" fill="white"/>
<path d="M379.414 78.8817C386.553 78.8817 392.323 81.1534 396.722 85.6968C401.121 90.168 403.32 96.4422 403.32 104.519V139.676H388.176V106.575C388.176 101.815 386.986 98.173 384.606 95.6489C382.226 93.0527 378.981 91.7546 374.87 91.7546C370.688 91.7546 367.37 93.0527 364.918 95.6489C362.538 98.173 361.348 101.815 361.348 106.575V139.676H346.204V79.7471H361.348V87.2112C363.368 84.615 365.928 82.5957 369.029 81.1534C372.202 79.6389 375.664 78.8817 379.414 78.8817Z" fill="white"/>
<path d="M427.782 126.912H461.749V139.676H410.258V127.993L444.009 76.9346H410.258V64.1699H461.749V75.8528L427.782 126.912Z" fill="white"/>
</svg>
