<svg width="90" height="90" viewBox="0 0 90 90" fill="none" xmlns="http://www.w3.org/2000/svg">
<circle cx="45" cy="45" r="45" fill="white"/>
<path d="M35.4894 46.4567V43.6239C35.4894 32.5761 37.2599 26.4148 44.6252 26.4148H45.2625C51.2822 26.4148 52.9111 30.8056 52.9111 38.3833H64.3838V35.8338C64.3838 22.0239 57.7268 16.5 44.6252 16.5C30.2488 16.5 23.875 24.5026 23.875 43.6239V46.4567C23.875 65.578 30.2488 73.5807 44.6252 73.5807C57.7268 73.5807 64.3838 68.0567 64.3838 54.4594V53.822H52.9111C52.9111 59.7708 50.8573 63.6659 45.2625 63.6659H44.6252C37.2599 63.6659 35.4894 57.5046 35.4894 46.4567Z" fill="#131313"/>
<path d="M28.1144 46.4567V43.6239C28.1144 32.5761 29.8849 26.4148 37.2502 26.4148H37.8875C43.9072 26.4148 45.5361 30.8056 45.5361 38.3833H57.0088V35.8338C57.0088 22.0239 50.3518 16.5 37.2502 16.5C22.8738 16.5 16.5 24.5026 16.5 43.6239V46.4567C16.5 65.578 22.8738 73.5807 37.2502 73.5807C50.3518 73.5807 57.0088 68.0567 57.0088 54.4594V53.822H45.5361C45.5361 59.7708 43.4823 63.6659 37.8875 63.6659H37.2502C29.8849 63.6659 28.1144 57.5046 28.1144 46.4567Z" fill="white"/>
</svg>
