<svg width="60" height="60" viewBox="0 0 60 60" fill="none" xmlns="http://www.w3.org/2000/svg">
<circle cx="30" cy="30" r="30" fill="#131313"/>
<path d="M23.6609 30.9711V29.0826C23.6609 21.7174 24.8412 17.6098 29.7514 17.6098H30.1763C34.1894 17.6098 35.2753 20.5371 35.2753 25.5889H42.9239V23.8892C42.9239 14.6826 38.4858 11 29.7514 11C20.1671 11 15.918 16.3351 15.918 29.0826V30.9711C15.918 43.7187 20.1671 49.0538 29.7514 49.0538C38.4858 49.0538 42.9239 45.3712 42.9239 36.3062V35.8813H35.2753C35.2753 39.8472 33.9062 42.4439 30.1763 42.4439H29.7514C24.8412 42.4439 23.6609 38.3364 23.6609 30.9711Z" fill="white"/>
<path d="M18.743 30.9711V29.0826C18.743 21.7174 19.9233 17.6098 24.8334 17.6098H25.2584C29.2715 17.6098 30.3574 20.5371 30.3574 25.5889H38.0059V23.8892C38.0059 14.6826 33.5679 11 24.8334 11C15.2492 11 11 16.3351 11 29.0826V30.9711C11 43.7187 15.2492 49.0538 24.8334 49.0538C33.5679 49.0538 38.0059 45.3712 38.0059 36.3062V35.8813H30.3574C30.3574 39.8472 28.9882 42.4439 25.2584 42.4439H24.8334C19.9233 42.4439 18.743 38.3364 18.743 30.9711Z" fill="#131313"/>
</svg>
