<svg width="15" height="15" viewBox="0 0 15 15" fill="none" xmlns="http://www.w3.org/2000/svg">
<g clip-path="url(#clip0)">
<path d="M14.9712 2.85562C14.4181 3.09875 13.8275 3.26437 13.2056 3.34C13.8394 2.95812 14.3269 2.35625 14.5575 1.63812C13.9631 1.985 13.3044 2.2375 12.6031 2.37812C12.0431 1.77875 11.245 1.40375 10.3587 1.40375C8.66062 1.40375 7.28375 2.78062 7.28375 4.47687C7.28375 4.72062 7.31187 4.955 7.36312 5.17937C4.80687 5.05875 2.54125 3.83125 1.025 1.97562C0.758125 2.42687 0.60875 2.95125 0.60875 3.5225C0.60875 4.59125 1.1525 5.53062 1.97625 6.0825C1.47187 6.06625 0.9975 5.9275 0.58375 5.6975V5.73562C0.58375 7.22625 1.64187 8.46937 3.05 8.7525C2.79187 8.82187 2.51937 8.85937 2.24 8.85937C2.04375 8.85937 1.85562 8.84062 1.6675 8.80562C2.06187 10.0262 3.19562 10.9162 4.545 10.9412C3.495 11.7656 2.16437 12.2569 0.73125 12.2569C0.4875 12.2569 0.244375 12.2425 0 12.215C1.36812 13.0862 2.98 13.5956 4.72312 13.5956C10.3819 13.5956 13.4725 8.91062 13.4725 4.85437C13.4725 4.72375 13.4725 4.59187 13.4631 4.46062C14.0637 4.03 14.5881 3.48562 15.0006 2.86812L14.9712 2.85562Z" fill="#1B1B1B"/>
</g>
<defs>
<clipPath id="clip0">
<rect width="15" height="15" fill="white"/>
</clipPath>
</defs>
</svg>
