<svg width="15" height="15" viewBox="0 0 15 15" fill="none" xmlns="http://www.w3.org/2000/svg">
<g clip-path="url(#clip0)">
<path d="M14.9856 4.00999C14.92 5.47124 13.8988 7.47437 11.9269 10.0156C9.88438 12.67 8.16063 13.9969 6.74563 13.9969C5.865 13.9969 5.13437 13.1881 4.525 11.5712L3.32625 7.12499C2.87688 5.50999 2.39625 4.70124 1.88125 4.70124C1.76937 4.70124 1.3775 4.93749 0.705625 5.40874L0 4.49812C0.740625 3.84562 1.46937 3.19562 2.18812 2.54312C3.175 1.68812 3.91625 1.23999 4.40937 1.19374C5.57625 1.08124 6.29437 1.88124 6.56375 3.59249C6.85437 5.43812 7.05687 6.58562 7.17062 7.03437C7.5075 8.56562 7.8775 9.33062 8.28062 9.33062C8.59437 9.33062 9.06562 8.83312 9.69625 7.83999C10.3237 6.84687 10.6587 6.09187 10.7037 5.57249C10.7937 4.71562 10.4569 4.28437 9.695 4.28437C9.33625 4.28437 8.96562 4.35999 8.58437 4.52874C9.32562 2.11124 10.7306 0.930619 12.8106 1.00562C14.3562 1.04312 15.0781 2.04562 14.9937 4.00374L14.9856 4.00999V4.00999Z" fill="white"/>
</g>
<defs>
<clipPath id="clip0">
<rect width="15" height="15" fill="white"/>
</clipPath>
</defs>
</svg>
